<?xml version="1.0" encoding="utf-8"?>
<!-- Generator: Adobe Illustrator 18.0.0, SVG Export Plug-In . SVG Version: 6.00 Build 0)  -->
<!DOCTYPE svg PUBLIC "-//W3C//DTD SVG 1.1//EN" "http://www.w3.org/Graphics/SVG/1.1/DTD/svg11.dtd" [
	<!ENTITY ns_flows "http://ns.adobe.com/Flows/1.0/">
	<!ENTITY ns_extend "http://ns.adobe.com/Extensibility/1.0/">
	<!ENTITY ns_ai "http://ns.adobe.com/AdobeIllustrator/10.0/">
	<!ENTITY ns_graphs "http://ns.adobe.com/Graphs/1.0/">
	<!ENTITY ns_vars "http://ns.adobe.com/Variables/1.0/">
	<!ENTITY ns_imrep "http://ns.adobe.com/ImageReplacement/1.0/">
	<!ENTITY ns_sfw "http://ns.adobe.com/SaveForWeb/1.0/">
	<!ENTITY ns_custom "http://ns.adobe.com/GenericCustomNamespace/1.0/">
	<!ENTITY ns_adobe_xpath "http://ns.adobe.com/XPath/1.0/">
]>
<svg version="1.1" id="Layer_2" xmlns:x="&ns_extend;" xmlns:i="&ns_ai;" xmlns:graph="&ns_graphs;"
	 xmlns="http://www.w3.org/2000/svg" xmlns:xlink="http://www.w3.org/1999/xlink" xmlns:a="http://ns.adobe.com/AdobeSVGViewerExtensions/3.0/"
	 x="0px" y="0px" width="428.9px" height="571.6px" viewBox="413 0 428.9 571.6" enable-background="new 413 0 428.9 571.6"
	 xml:space="preserve">
<metadata><?xpacket begin="﻿" id="W5M0MpCehiHzreSzNTczkc9d"?>
<x:xmpmeta xmlns:x="adobe:ns:meta/" x:xmptk="Adobe XMP Core 5.6-c011 79.156289, 2014/03/31-23:39:12        ">
   <rdf:RDF xmlns:rdf="http://www.w3.org/1999/02/22-rdf-syntax-ns#">
      <rdf:Description rdf:about=""
            xmlns:xmp="http://ns.adobe.com/xap/1.0/"
            xmlns:xmpGImg="http://ns.adobe.com/xap/1.0/g/img/"
            xmlns:xmpTPg="http://ns.adobe.com/xap/1.0/t/pg/"
            xmlns:stDim="http://ns.adobe.com/xap/1.0/sType/Dimensions#"
            xmlns:xmpG="http://ns.adobe.com/xap/1.0/g/"
            xmlns:dc="http://purl.org/dc/elements/1.1/"
            xmlns:xmpMM="http://ns.adobe.com/xap/1.0/mm/"
            xmlns:stRef="http://ns.adobe.com/xap/1.0/sType/ResourceRef#"
            xmlns:stEvt="http://ns.adobe.com/xap/1.0/sType/ResourceEvent#">
         <xmp:CreatorTool>Adobe Illustrator CC 2014 (Macintosh)</xmp:CreatorTool>
         <xmp:CreateDate>2015-04-10T11:45:04+01:00</xmp:CreateDate>
         <xmp:MetadataDate>2015-04-10T11:45:04+01:00</xmp:MetadataDate>
         <xmp:ModifyDate>2015-04-10T11:45:04+01:00</xmp:ModifyDate>
         <xmp:Thumbnails>
            <rdf:Alt>
               <rdf:li rdf:parseType="Resource">
                  <xmpGImg:width>192</xmpGImg:width>
                  <xmpGImg:height>256</xmpGImg:height>
                  <xmpGImg:format>JPEG</xmpGImg:format>
                  <xmpGImg:image>/9j/4AAQSkZJRgABAgEASABIAAD/7QAsUGhvdG9zaG9wIDMuMAA4QklNA+0AAAAAABAASAAAAAEA&#xA;AQBIAAAAAQAB/+4ADkFkb2JlAGTAAAAAAf/bAIQABgQEBAUEBgUFBgkGBQYJCwgGBggLDAoKCwoK&#xA;DBAMDAwMDAwQDA4PEA8ODBMTFBQTExwbGxscHx8fHx8fHx8fHwEHBwcNDA0YEBAYGhURFRofHx8f&#xA;Hx8fHx8fHx8fHx8fHx8fHx8fHx8fHx8fHx8fHx8fHx8fHx8fHx8fHx8fHx8f/8AAEQgBAADAAwER&#xA;AAIRAQMRAf/EAaIAAAAHAQEBAQEAAAAAAAAAAAQFAwIGAQAHCAkKCwEAAgIDAQEBAQEAAAAAAAAA&#xA;AQACAwQFBgcICQoLEAACAQMDAgQCBgcDBAIGAnMBAgMRBAAFIRIxQVEGE2EicYEUMpGhBxWxQiPB&#xA;UtHhMxZi8CRygvElQzRTkqKyY3PCNUQnk6OzNhdUZHTD0uIIJoMJChgZhJRFRqS0VtNVKBry4/PE&#xA;1OT0ZXWFlaW1xdXl9WZ2hpamtsbW5vY3R1dnd4eXp7fH1+f3OEhYaHiImKi4yNjo+Ck5SVlpeYmZ&#xA;qbnJ2en5KjpKWmp6ipqqusra6voRAAICAQIDBQUEBQYECAMDbQEAAhEDBCESMUEFURNhIgZxgZEy&#xA;obHwFMHR4SNCFVJicvEzJDRDghaSUyWiY7LCB3PSNeJEgxdUkwgJChgZJjZFGidkdFU38qOzwygp&#xA;0+PzhJSktMTU5PRldYWVpbXF1eX1RlZmdoaWprbG1ub2R1dnd4eXp7fH1+f3OEhYaHiImKi4yNjo&#xA;+DlJWWl5iZmpucnZ6fkqOkpaanqKmqq6ytrq+v/aAAwDAQACEQMRAD8A9U4q7FXYq7FXYqoXUJYc&#xA;16jqPbAQkFTiuSAFc9Ojf1xtNKpkcbjcHx3H3jFCn+7JrRK+5OKr1YdA4A/ljGKt1C77L/lOanFV&#xA;N54gagGRvFun3Y2tLa3MvjT7hgS2LOTuQMaW3G0kA2IONLaxXlhah2/yT0xVXbhcR1X7Yw80clK1&#xA;FJiD1AOAJKMyTF2KuxV2KuxV2KuxV2KuxV2KuxV2KqM1srnkuzfgcFJBUONxEdgR8txgS39ak7qD&#xA;8xja00Zbh9hUDwUUxVTdWVqN1xVFw26qAWFW/VhAQSqSSpGPiP0d8KFA3n8q/ecFppy3TN+wT4kY&#xA;2tNmZHFGHJfHuPoxtaUSGhcMpqD0PiMCVWTcLcR9R9oYUKhuYggYnr2742tLGunArwoD0JxtaVon&#xA;5oGpSvbChdirsVdirsVdirsVdirsVdirsVdirsVdiqDm/wB6t+lR/DIsgvaQgu1dwWp8xQDChQCs&#xA;5qTWtd/elcCVRieXCMVNSdvcDFVrxyRAEtQnagOKrKNTlXfriq5WqpB6dx/EYqqWz8XMbdG/XiFK&#xA;qkCRcnbem49hhpFqdz8c6p8h9+JUIoAAUHQYUOxV2KuxV2KuxV2KuxV2KuxV2KuxV2KuxVC3iGoc&#xA;dOhwFIUyeSE/f7Hx+nAluEVU07dQOvsR8sQpVbSnxnvXCEF170T6cSoUGHwfKn41OBLmqpUjoAK/&#xA;SK4q5xQgjtsD+IxVXlbkPmgP3kYShaPivPkf1DHqvRFYUOxV2KuxV2KuxV2KuxV2KuxV2KuxV2Ku&#xA;xVzKGBBFQeuKoR7eSM8k3H45GmVqIZlfkPhIxVVhl/fg0py2IGIUr73on04SgKLf3dexIH3DAldK&#xA;PhPzUfcuKtdYifDj/EYqqPtGD/xWP1jCh1r8Uruf864hSisKHYq7FXYq7FXYq7FXYq4kAVOwxVRe&#xA;7jXp8R/DBaaUxczOaIoH442tKgS6PVwPo/sxVvjcD9sH5j+mKu9V0/vE2/mXcYqqKysKqajChvFW&#xA;iqnqAfnirQjjBqFAPyGKoa8J9QDsBkSyCwwSBA3VetPDGltqSTkD2qSaYq4D90B3dtvo/wBvFV90&#xA;w5BB+yKHEqERbx8IxXqdzhCC3LMkY33PYYbRS5GDKGHQ4q3irsVU5p1j26t4YLSAvRw6Bh3wobxV&#xA;SkuI02HxN4DBaaQrySStQ/QowJX+kqgftE9Pf+zFWxKQeMQq3iBt9A/riq8Qztu8hX2GGkW2YZhu&#xA;spJ98aW3LO6NxmFP8rG1pzxsh9SHp3XtiqrHIsi8h9IwoXYq7FUG/wC+uKDp0r7DIskYAAKdskxQ&#xA;EqUlZR47fTkWTufxgr+yKIMVdGYweT1JHRf64qqG4mk2QU+W5w2im0tWJrIfo740trrQkckPY4hS&#xA;iMKHYqhIYxMXZ+/8ciGRb+qyqfgb6emGkW39Wmb7cm3zJxpbXi3ijUsRypvvjS2oQrycsdutT+vA&#xA;ElzcpJOK7V7eAxVFxxLGtB17nJMV2KuxVa6K68WxVQhdo5DE/T9k4AkrnHpShx9htmH8cVV8KFG5&#xA;l4LxH2m/VgKQttI6KXPU7D5YhSiMKEDcbzN4/wBmRLIL47Rju54jw74aW1dbeJf2anxO+NItczpG&#xA;tTsOwwoWRM0h5nZf2R/HAlZb/wB/J4b/AK8QpRGFDsVQqH0Jip+y3f8AVgSisKHYqoXclECDq3X5&#xA;YCkKcYCxb/tdf9UdfvxVUtFqGc9SaYhS6e54nin2u58MSVAUQ1y245H5YEtrcTIaNv7HY42tImKV&#xA;JBUde4yTFTu0qocdV6/LAUheKSwf6w/HFXW78ohXqNj9GIUoWQmWcgdzQfLAlHAAAAdBsMkxdiqm&#xA;IQJTId69B4YKTaphQoy3KpsvxN+GC00sjheRucvTsMaW0QxCqT2AwoULQGjOf2jgCSiMKHYqsliW&#xA;RaHr2OKoYSSwNxO48D/DIskSJKR83HH2yTFBktLLU7V/AZFkumfbiO9NvYdMVC+2lCoynqKsMIQW&#xA;raMOxdtwP14hJReFi0yKwowqMVQjo0EgYbjt/TIskX8Lp7MP15JipWwKh0PVT+vAElbGeEky/wCy&#xA;GKrLRayFv5R+vAElF5JipiUvLxT7K/aP8MCVQkAVJoB3woQzzSSnhEKDucFppUit0Tc/E3jjS2q4&#xA;UIa4l5sIk333wFIREaBECjthQ3irsVQ09w6sUXanU4CUgKavGp5NWR/wwJWySSSGrdB27DFVqsB7&#xA;+39cVV7eEs3qP06j3OEIJXXFuSeaDfuMSFBXWqssZDChr3xClZcSyCQIhp/U4lQ16l0m7Co+X9MV&#xA;XGRJ4yvR+oB8cVXWj1j491xClV4jly7nY4UIa4PGYn+ZafwwFIX2Y+Bj4n9WIUt3MhACL9pv1YlQ&#xA;ujRYY9+27HFVCr3D06IMeaeSKRFRaKKDCxbxVCzSyF/TPwL4+2ApCpCkMYrzBPjUYhSv9eLkFDVJ&#xA;2FMNrS/FDsVWtGjfaUHFVB7Q1qh28DgpNrBaS+w+nBSbVY7RVNWPI+HbDSLV8KHYq7FULJ/vWvzG&#xA;DqnoisKFKS2R9x8LeIwUm1OGKaOTpVTsSMQpROFCHvF2VvDY4CkLrT+6+k4hSpAlp2buDxX5nbFW&#xA;7hi8giX6fniVCIjQIoUdsKF2KuxVpkVhRgD88VUpI7ZBVl+QqcCVK3TnKXpRR2wBJReSYuxV2Kux&#xA;V2KuxV2KuxV2KoW7BDq4/wA6YCkIiNw6Bh36/PChZKzxnmN1/aH8cCV8cqOPhO/h3woXYq06B1Kn&#xA;ocVU7ZWRWRh0OxwBJUYdnqexYn6B/biEldaLyZpD1/riEFEO6opZjQDChRjeaVqj4Ix9JOBKq78Q&#xA;abnt3woQjXExNOVPltkbZUvS1ZjWRv4nDSLRKqqiiigGFDeKuxV2KuxV2KuqMVWtLGv2mAxVRa6Z&#xA;jxiWp8cFppoQ3Dbs9Pb/AGsaW3PbSkU58h4HGltbGJ4W+ySvcDfAlFKwYVH3HJMVJ7VCaqeJ9umC&#xA;k2tpdp0IcY7rs760ymjpT/P3xtaVUnjfYGh8DhtaQ7/C7j/W/wCGGRSrWopCPepwhBUZXEktCfgT&#xA;8cVVvXjRBUUH7K96Y2tKDTIzVoR8wp/hgtNNmjL2YD9odR8xiqpbSGvpt1H2T7YQgq+FDsVdirsV&#xA;dirsVQdzGVk5dVbIlkF8ccDLyVeR7qTvhQvEsYHFRxPhT+mKu5uejN/wBxVqsn8z/wDAUxVr4/GT&#xA;8BiriwHVm/4JcVW+uvQFyfmMbWmjNMPs8qe4H9MbTTvrUg2dQfwxtaaJt5P+K2/DAqxy4ajGu1K+&#xA;IxVEwN/o9e61/rhCChkoAC3Tqffr/TAlr4nJY9cVVoreOSMNUhuhw0i1jwyxHkNwP2hgpNtRuTMh&#xA;6b4qjskxdirsVdirsVdirTorrxYVGKoR4JIzySpHiOuRplbXrlhR1DHx2rja04SRDt+H9uKtNKP2&#xA;QPuxVtI5ZelAvjQDFUQlrEvX4j74aRaqABsBQe2FDsVcQDsRUYqoyWsbdPhPtgpNoaSJ4zRunY9s&#xA;CV9s4qYz0bp88QpWNXhTupocVd9kinRgPvH9uKq1q1GZOx3GEIKJwoUEtuMvKvwjoMFJtXwodirs&#xA;VdirsVdirsVdiq1oo2+0oJ8cVU2t4FHJtgPfBSbUoolkfkBxjHbxxSiwABQdMLFQlugp4oOTePbB&#xA;aaUmmmpUtT2GC00tWacnZiT9+NrSoHux1NPnQYd0bNiW4H8h+kf1xtWzM5FHi5L3pvitIZ+INUJp&#xA;4HqMCV5JkFR9unxDx98VaPxR+43/AIHFVStFjmHY0bFUWCCKjockxdirsVdirsVdirsVdirsVdir&#xA;sVQsxM0wjXoP8zgSiVUKoUdBhQo3MpA4L9o9fYYCkIcAKvI9+g8f7MCV6xM1GcE1+yo2/wBoYqqg&#xA;ACh3p1VdlHzOFCm8kS/ZC19hX8TgSpmUnsKfJf6Yq0GFewPj0/ViqoTyHxb+BP8AzUP44qpMGRu4&#xA;PUYqqRkPIB0Ldf44q3CN3hbv0+YxClVgmUD03NGXbfCCghXwodirsVdirsVdirsVdirsVU55eC7f&#xA;aPQYCkNW8XBan7TdcQpVHICkk8ffChDcRuN6dW8f9s4Euij5ylmGy7U7V8PoxVEO6ovJumFCDkle&#xA;Q77L4dsiyWqtRXx2UeJxVep4njGOT/zdfuxVU+qu+8j74aRbjbSJujV8RjS2ph1YcSOP+Sen9mBK&#xA;wfBID4GuKqtwOLrKvQ7198JQGpgKrMoqrdR74CkKqP6bKK1if7J8PbChXwodirsVdirsVdirsVUp&#xA;Z+J4IOT4LTS2OLifUmPxe/QYq29yo+yK+/QY2tKdXZgW69h/QfxOKq0cdNz9A/j88VVAABQCgwoQ&#xA;crGWbjX4V/h1ORZLCasFA69B+oYqvfatOijiv6if14qrW0QVAx+02/0YQgq2FDsVU5II5NyKHxGC&#xA;k2hpLaRNx8SjwwUm18P7yFoj1G64QgqSluDJ4b0wJXr8VqwP7JqMVRML8o1Pfv8ARkgxK/FXYq7F&#xA;XYq7FXYqhp4DX1I+vUjAQkFuO7U7SChHfG1pd6ltu1RU9++KrDcRqOMS1Y98bWm7Xlyct9ratcQp&#xA;V3NFJ8BXChBRj4GPiQv37nIsl0Aq4Y9yfwBOIUukH7pfcKf+JYqi0+wvyGSYt4q0zqv2jSuKt4q7&#xA;FUI49GcMPsn/ADOBk1OKSc18d/n/AG4CoaT+6I8W/gcVVLeVUhJbsdhhCCvElw4qiADsTirRe6Xc&#xA;qCPbFVfCh2KuxV2KuxVZJFERVwB/ldMCVJbaBt1YkfPGltVWOOMEgU8ThQp2tSHb+Y4Akr7g0hb7&#xA;sSoUIh/o7N4En/hafxxS1CQEJ/lYE/I7YApXOvwcT1XY/LqDhQ6Kdo14upKjowxtaREciyAle22+&#xA;FCGuqtMq9qD8TgKQvVbmMUWjqOmKt/WJV+3GaeIxtac7xTJxBo3YHbfFVJPiXi3+q3t/Kf4YErAa&#xA;Q1/yqfhiqrbQhhzbcA7DCAglVkuY0NOp9sbWlou0ruCMbWlfCh2KuxV2KuxVRuz+6+ZGApCHFU+N&#xA;DQilfpFcCUSY5XFHYAdwvfChUVQqhRsBhQh7xxQIOvU4CkLAStuwPsPpO/6sCVg5xkMRsw+gg4qv&#xA;WddgQdvssOtPA+ONrSx5AdlHGvWlRX6MVRVtGUj36nemEIKldgiRW9v1YlQiVYMoYdDvhQ3iqlLb&#xA;I5qPhbBSbQxVono42Ox9xgStJopXrvWuKopj6Vtt1pT6ThQ0sMawhm2PXl4E40trWhPw1FQadO1d&#xA;jT9eNKicKHYq7FXYq7FVO4UtEadRvgKQhVHJK+GzfwOBKoty6ABl5Dsww2inNeMfsrT3O+NrS1Ii&#xA;T6kvTwPUnAlo1kYRjxq3zP8ATFUZxUrxIqPDJMVM2sJ7U+RwUm1yQxIahd/HrhpFr8VU7iPnHt9o&#xA;bjAUhStZf91t/sf6YhSicKHYqtkjV14n6DiqAdGRuLZFkjLkVhJHscJQFrn1LWo60H4YqshnkCUC&#xA;F6bAjEFSEVhQ7FXYq7FXYq7FUNJC8b+pF07rgpNqZlTf4Sh78en3HAmmvWodj/wqjFacDJIaKCT4&#xA;k1xVFQwiMeLHqcICCVTCh2KuxV2KuxVB3KqJfh+0eo98iWQcl1IoofiH442tKgvAduBr4DDaKVkc&#xA;t1Ur88KHSRLIKN9BxVyJSPgxrtSvtiqGicwyGN/sn/OuBk3IrQsWTZG/DFCKwodirsVdirsVdirs&#xA;VaZEb7Sg4qt9CL+UY0trwABQCgxV2KuxV2KuxV2KrJpPTQnv0HzxKhBjYcm3J/GuRZLljWvKU0ru&#xA;FHWn8MVXG5C/DEoA8cNopwe7O4B+4Y7rs361yu7LUe4/pja0qR3SNsfhP4Y2tNzwiRaj7Q6YkKCp&#xA;QyAgwy/IVxVFYUOxV2KuxV2KuxV2KuxV2KuxV2KuxV2KuxV2KoW5+KZE7f1wFIUgQ0lT0FTT5YEr&#xA;uJeTgDv1dvfFUWkSIKKPp75JiuxV2KqUtuj7j4W8cFJtQSWSFuLCo8P6YEqzpHOvJT8Xj/XChWwo&#xA;dirsVdirsVdirsVdirsVdirsVdirsVdirsVQ0n+9a170wJ6KBBRiD1p+sYEoizAozd60whBV3dUF&#xA;WNBhQ5WVhUGoxVvFXYqtkiWRaN9BxVBsssD1+49jkWSOyTF2KuxV2KuxV2KuxV2KuxV2KuxV2Kux&#xA;V2KuxVD3akFZB1G39MBSG3jWdA67N/ntiqihmhJHHY9sCVQLLKeUgog3C+OFDUB4TlBUK3QHEKUV&#xA;hQ7FXYq0yqwowqMVbxV2KuxV2KuxV2KuxV2KuxV2KuxV2KuxV2KuxVplDKVPQ4qhCJLd9t1P3HIs&#xA;uaIjuEfbo3gcNopZKszA1Hw+Aof4Yqp2iVkLfy9vngCSi8kxdirsVdirsVdirsVdirsVdirsVdir&#xA;sVdirsVdirsVdirsVdirTKGFCKjwxVQezHVDT2OCk2tjmeNuEvTx8MbWm4yBdMB0NcVROFDsVdir&#xA;sVdirsVdirsVdirsVdirsVdirsVdirsVdirsVdirsVdirsVUrmMNGT+0u/0YCkKdpERVyKV2GIUo&#xA;nCh2KuxV2Kv/2Q==</xmpGImg:image>
               </rdf:li>
            </rdf:Alt>
         </xmp:Thumbnails>
         <xmpTPg:MaxPageSize rdf:parseType="Resource">
            <stDim:w>151.295144</stDim:w>
            <stDim:h>201.631251</stDim:h>
            <stDim:unit>Millimeters</stDim:unit>
         </xmpTPg:MaxPageSize>
         <xmpTPg:NPages>1</xmpTPg:NPages>
         <xmpTPg:HasVisibleTransparency>False</xmpTPg:HasVisibleTransparency>
         <xmpTPg:HasVisibleOverprint>False</xmpTPg:HasVisibleOverprint>
         <xmpTPg:PlateNames>
            <rdf:Seq>
               <rdf:li>Cyan</rdf:li>
               <rdf:li>Magenta</rdf:li>
               <rdf:li>Yellow</rdf:li>
            </rdf:Seq>
         </xmpTPg:PlateNames>
         <xmpTPg:SwatchGroups>
            <rdf:Seq>
               <rdf:li rdf:parseType="Resource">
                  <xmpG:groupName>Default Swatch Group</xmpG:groupName>
                  <xmpG:groupType>0</xmpG:groupType>
               </rdf:li>
            </rdf:Seq>
         </xmpTPg:SwatchGroups>
         <dc:format>image/svg+xml</dc:format>
         <xmpMM:DerivedFrom rdf:parseType="Resource">
            <stRef:instanceID>xmp.iid:a155f1d4-caf1-4f69-be3a-0637dd544df5</stRef:instanceID>
            <stRef:documentID>xmp.did:a155f1d4-caf1-4f69-be3a-0637dd544df5</stRef:documentID>
            <stRef:originalDocumentID>xmp.did:a155f1d4-caf1-4f69-be3a-0637dd544df5</stRef:originalDocumentID>
         </xmpMM:DerivedFrom>
         <xmpMM:DocumentID>xmp.did:872af2f6-ef2e-4d4d-bf32-60e7962e2dfd</xmpMM:DocumentID>
         <xmpMM:InstanceID>xmp.iid:872af2f6-ef2e-4d4d-bf32-60e7962e2dfd</xmpMM:InstanceID>
         <xmpMM:OriginalDocumentID>xmp.did:a155f1d4-caf1-4f69-be3a-0637dd544df5</xmpMM:OriginalDocumentID>
         <xmpMM:History>
            <rdf:Seq>
               <rdf:li rdf:parseType="Resource">
                  <stEvt:action>saved</stEvt:action>
                  <stEvt:instanceID>xmp.iid:a155f1d4-caf1-4f69-be3a-0637dd544df5</stEvt:instanceID>
                  <stEvt:when>2015-04-10T11:44:55+01:00</stEvt:when>
                  <stEvt:softwareAgent>Adobe Illustrator CC 2014 (Macintosh)</stEvt:softwareAgent>
                  <stEvt:changed>/</stEvt:changed>
               </rdf:li>
               <rdf:li rdf:parseType="Resource">
                  <stEvt:action>saved</stEvt:action>
                  <stEvt:instanceID>xmp.iid:872af2f6-ef2e-4d4d-bf32-60e7962e2dfd</stEvt:instanceID>
                  <stEvt:when>2015-04-10T11:45:04+01:00</stEvt:when>
                  <stEvt:softwareAgent>Adobe Illustrator CC 2014 (Macintosh)</stEvt:softwareAgent>
                  <stEvt:changed>/</stEvt:changed>
               </rdf:li>
            </rdf:Seq>
         </xmpMM:History>
      </rdf:Description>
   </rdf:RDF>
</x:xmpmeta>
                                                                                                    
                                                                                                    
                                                                                                    
                                                                                                    
                                                                                                    
                                                                                                    
                                                                                                    
                                                                                                    
                                                                                                    
                                                                                                    
                                                                                                    
                                                                                                    
                                                                                                    
                                                                                                    
                                                                                                    
                                                                                                    
                                                                                                    
                                                                                                    
                                                                                                    
                                                                                                    
                           
<?xpacket end="w"?>
	</metadata>
<g id="Layer_2_1_">
	<g>
		<g>
			<g>
				<g>
					<g>
						<path fill="#F4F0ED" d="M569.1,17.8c1.8,0,3.1,0,5.1,0c20.1-1.5,35.9-12.1,53.3-17.8h-6.7c-9.6,4.4-19,9.6-28.5,12.1
							c-6.9,1.8-15,3.1-23,3.1c-15,0-29.4-3.8-38.6-12.5C539.2,12.7,553.5,17.8,569.1,17.8z"/>
						<polygon fill="#F4F0ED" points="841.9,440.3 841.9,433.4 838.5,433.1 						"/>
						<path fill="#F4F0ED" d="M806,395c-12.5,18.1-0.5,43,10.5,56.2c6.7,8.2,16,16.3,25.2,24.1v-10.2c-5.1-4.9-10-10.3-14.7-15.8
							c-7.4-8.7-17.4-21.8-19.4-31.2c-2-9.4,0.5-20.7,8.2-23c5.1,1.8,8.7,5.6,10.5,10.5c3.1-4.4-3.8-10.5-8.7-11.8
							c1.3-0.5,1.8-0.5,2.5-0.5c6.9-0.5,11.8,7.4,12.5,14.3c3.8-6.2-3.1-14.3-8.2-16.1c0.5,0,1.8,0,2.5,0c7.4,0,10.5,9.4,10,18.7
							c5.1-3.8,1.3-14.3-2.5-16.1c3.1,0.2,5.6,2.4,7.1,5.6v-10.9c-4.5-2.2-9.6-3.4-14.7-3.4C819.2,385,811.1,388.1,806,395z"/>
						<path fill="#F4F0ED" d="M580.7,0h-19.9c-1.8,0.5-3.6,1.1-5.4,1.5c3.1,1.3,5.6,1.8,8.7,1.8C569.6,3.3,575.1,1.8,580.7,0z"/>
						<path fill="#F4F0ED" d="M837.2,420.6c-10.5,0-9.4-11.8-16.9-14.3c-5.6,20.7,11.8,30.6,19.4,43.7c0.7,0.7,1.5,1.3,2.2,2v-10.7
							c-1.5-1.8-2.9-3.4-4-5.1c-3.8-5.1-6.9-8.2-8.7-12.5c2.5,1.8,5.1,2.5,9.4,2.5c1.3,0,1.8,0,3.1,0h0.2v-8.5
							c-0.5,1.1-1.3,2.2-2.2,2.9C839.2,420.6,837.9,420.6,837.2,420.6z"/>
						<path fill="#F4F0ED" d="M677.7,21.8c-0.2-0.2-0.4-0.4-0.7-0.4C677.1,21.6,677.5,21.8,677.7,21.8z"/>
						<path fill="#F4F0ED" d="M604.6,0.2c0.2-0.2,0.5-0.2,0.7-0.4h-4.5c-12.1,4.5-24.7,8.3-37.5,8.3c-8.2,0-16.1-1.3-24.3-5.1
							c7.4,6.2,15.6,8.2,23.7,8.2C576.5,11.4,591.6,5.3,604.6,0.2z"/>
						<path fill="#F4F0ED" d="M831,363.3c-1.3,0-2.5,0-3.8,0c-13.1,0-29.4,5.1-31.7,17.4c0-24.3-5.6-45.5-21.2-57.5
							c-5.1-3.8-11.8-5.1-15.6-10c-2.5-3.1-3.8-9.4-6.2-14.3c-6.2-13.8-11.2-28.6-15-43.7c11.8,0,23,6.2,31.2,11.8
							c3.1,3.8,4.4,11.2,9.4,11.2c0,0,0.5,0,1.3,0c5.1-0.5,6.2-12.5,6.2-19.9c-1.3-14.3-14.3-26.3-18.7-30.6
							c20.7-3.8,35.5-16.1,36.8-36.8c-6.2,1.3-15.6,3.8-24.3,3.8c-5.6,0-10.5-0.5-14.3-3.8c3.1-2.5,7.4-3.1,11.2-6.2
							c20.7-14.3,32.4-64.9,10.5-86.6c-10.5,11.8-28.6,16.9-45.5,22.5c-0.5-3.8,5.6-6.2,8.2-10c11.8-15.6,15-35,17.4-56.7
							c0.5-4.4,1.8-10.5,4.4-15.6c1.3-3.1,5.1-6.2,4.4-8.7c-0.5-3.1-3.8-3.8-8.2-3.8c-10,0-25,6.2-27.4,10
							c-2.5-8.2-11.8-14.3-12.5-23c-0.4-3.1,0.7-8,1.8-12.7h-22.1c11.4,15.4,23.7,29.7,31.5,46.4c6.2-6.9,11.8-13.8,25-14.3
							c-7.4,13.1-5.6,36.3-11.2,51.1c-1.8-10.5,0-27.4,0-36.8C745.1,56.9,752,82,746.4,95c-1.3-12.5-2.5-28.6-0.5-41.9
							c-9.4,13.1,1.8,34.3-4.4,48.6c-1.8,3.8-6.2,7.4-8.2,10.5c-2.5,3.8-5.1,8.2-8.7,10c10.5-14.3,19.9-55.5,3.8-74.9
							c-8.2-22.7-23.9-35.7-43.3-47.7h-37.2c-10.5,2.7-19.9,6.9-30.1,11.4c-10.5,4.4-21.2,6.9-32.4,10c-4.4,1.3-8.2,3.8-12.5,3.8
							c-1.3,0-1.8,0-3.1,0c-20.7,0-35-12.5-48.6-22.5c-0.2-1.1-0.5-2-1.1-2.7H508c3.4,8.7,10.5,15.8,17.6,21.6
							c12.5,10,26.8,13.8,41.9,13.8c10,0,19.9-1.8,30.6-5.1C589.4,68.5,616.8,91,651,91c3.1,0,6.2,0,9.4-0.5
							c1.3-11.8-10-19.9-7.4-31.2c1.8-8.7,13.1-13.8,21.8-14.3c-4.4,14.3,0,31.2-2.5,45c-0.5,3.1-1.8,5.1-2.5,7.4
							c-0.5,4.4,0.5,8.7,0,12.5c-3.1,13.1-12.5,22.5-18.1,34.3c-7.4,15.6-6.9,31.2-10.5,51.8c-4.4-45-20.7-81-53.7-95.3
							c-11.2-5.1-23.7-6.9-35.5-6.9c-19.9,0-39.9,5.6-54.9,13.8c-12.5,6.9-26.8,19.9-45,19.9c-5.6,0-11.2-1.3-17.4-3.8
							c-1.8-1.8,0-7.4-3.8-8.2c-6.2,1.8-10.5,5.6-13.8,10.5c-13.8,23.7,11.8,42.4,21.2,50.6c-4.4,8.7-20.7,5.1-21.2,18.1
							c3.8,4.4,10.5,3.8,15.6,6.2c2.5,1.3,3.8,3.8,6.2,4.4c5.1,1.8,10.5,3.1,15.6,3.1c21.8,0,40.6-16.9,47.5-31.7
							c6.9,5.1,11.2,16.9,21.2,16.9c1.3,0,2.5,0,4.4-0.5c-4.4-16.9,4.4-32.4,18.1-35c2.5-0.5,4.4-0.5,6.2-0.5
							c23,0,38.6,23.7,40.6,41.9c-9.4-7.4-21.8-16.9-37.3-16.9c-2.5,0-5.6,0-8.7,1.3c-6.2,17.4-1.3,41.9,4.4,52.9
							c-5.1-1.8-10-2.5-14.3-2.5c-19.9,0-34.3,16.1-55.5,16.1c-3.1,0-6.2-0.5-10-1.3c-3.1,6.2,3.1,13.1,6.9,18.1
							c11.2,13.1,31.2,23.7,52.4,23.7c5.1,0,10-0.5,15.6-1.8c-2.5,6.9-10,10-14.3,15.6c-7.4,10-10.5,21.2-18.1,30.6
							c-7.4,9.4-18.7,13.8-26.8,22.5c7.4,11.2,23.7,23.7,43,23.7c1.8,0,4.4,0,6.2-0.5c9.4-1.3,16.1-8.2,23.7-10
							c-1.8,14.3-5.1,28.6-16.1,29.4h-0.5c-8.7,0-12.5-10.5-20.7-10.5c-1.8,0-3.8,0.5-5.6,1.3c-10,35,14.3,58.5,45,58.5
							c1.3,0,1.8,0,3.1,0c26.8-1.3,45.5-23,48.6-46.2c5.1,8.2,17.4,12.5,28.6,12.5c16.1,0,31.7-8.7,28.1-28.6c-0.5,0-1.8,0-2.5,0
							c-16.9,0-23-11.2-20.7-29.4c2.5-15,16.9-28.6,34.3-28.6c3.8,0,8.2,0.5,11.8,2.5c3.8,1.3,6.9,5.1,10,7.4
							c10.5,7.4,20.7,9.4,32.4,17.4c6.2,13.1,15.6,27.4,21.8,38.6c-8.7-4.4-18.1-8.7-29.4-11.2c-7.4-1.8-16.1-1.3-21.8-3.8
							c-3.1-1.3-6.9-8.7-10-8.7c-5.1,0-8.2,8.7-8.2,15.6c-0.5,26.3,11.2,39.3,21.8,52.4c-13.1,13.1-23,28.6-22.5,49.8
							c0.5,25.6,15.6,41.9,31.2,51.1c4.4,2.5,9.4,3.1,15,6.2c9.4,4.4,15.6,15,18.7,25c13.8-4.4,16.9-28.1,8.2-39.9
							c11.8-10.5,5.1-34.3-11.2-36.3c-1.3,6.9-8.7,12.5-15.6,12.5c-3.8,0-6.9-1.8-8.2-5.6c-3.8-10.5,3.1-23,8.2-29.4
							c5.1-6.2,16.1-10,26.3-11.8c3.8-0.5,6.9-0.5,10.5-0.5c24.3,0,37.3,15.6,52.9,28.6c6.2,5.1,12.5,10.5,19,15.8v-15.8
							c-10.5-8.2-21-16.3-32.6-23.7c-13.8-8.7-25-14.3-44.2-14.3c-1.8,0-3.8,0-5.6,0c-19.9,1.3-37.3,16.9-41.1,35
							c-4.4-15.6,9.4-20.7,16.1-27.4c-15.6,1.8-24.3,18.1-18.7,36.8c-5.6-3.8-4.4-20.7-1.3-26.8c6.9-15.6,29.9-23.7,48-26.8
							c-0.5-2.5-5.1-3.1-8.2-3.1c-0.5,0-1.3,0-1.8,0c-17.4,0-30.6-1.3-41.1-13.8c-8.7-10-15-25-14.3-42.4c10,6.9,29.4,5.1,41.1,11.2
							c1.8,1.3,3.1,3.1,5.1,4.4c3.8,2.5,9.4,3.8,12.5,6.2c13.1,9.4,19.9,26.3,36.8,34.3c1.3-5.6-3.8-8.7-4.4-15
							c-1.8-13.8,3.8-27.4,6.9-38.1c6.9-3.8,11.8-14.3,21.8-16.1c1.8-0.5,4.4-0.5,6.2-0.5c6,0,12.7,1.5,19,3.8v-7.3
							C838.5,364.4,834.7,363.5,831,363.3z M717.6,441.8c1.3,2.5-5.1,6.9-8.2,11.8c-6.2,9.4-15.6,28.1-8.2,44.2
							c-1.8-25,6.2-45.5,23-53.7c-10,12.5-28.1,26.3-21.2,51.1c3.1,11.8,16.1,21.2,28.1,21.2c7.4,0,15-3.8,18.7-13.1
							c4.4,0.5,6.2,3.1,7.4,6.9c-1.8,1.8-5.6,1.8-7.4,3.1c0.5,0.5,1.3,1.3,2.5,1.3c1.8,0,4.4-1.3,5.6-1.3c0.5,0,0.5,0,0.5,0.5
							c-0.5,5.6-7.4,3.8-11.8,5.1c0,1.8,1.3,2.5,2.5,2.5c2.5,0,6.2-1.8,7.4-1.8c0.5,0,0.5,0,0.5,0c-2.5,4.4-11.2,3.1-18.1,3.8
							c0.5,1.8,2.5,2.5,5.1,2.5c3.1,0,6.9-1.3,9.4-1.3h0.5c-1.3,2.5-4.4,3.1-8.2,3.1c-4.4,0-9.4-0.5-12.5-1.3
							c1.3,2.5,3.8,3.1,7.4,3.1c1.8,0,3.8,0,6.2,0c0.5,0,1.3,0,1.8,0c6.2,4.4,11.8,17.4,5.1,25c-12.5-22.5-48-23.7-56.7-50.6
							C689.5,479.3,702.5,455,717.6,441.8z M754.4,318.9c5.1,11.8,13.8,22.5,15,33.7c-1.3-5.1-4.4-8.2-8.2-11.2
							c2.5,9.4,10,13.1,10,25c-15.6-28.6-29.9-58.5-41.1-91.7c-2.5-3.8-7.4-9.4-4.4-13.8c5.1,11.2,9.4,23.7,14.3,34.3
							c-0.5-13.1-9.4-24.3-11.8-38.1c4.4,2.5,4.4,8.2,6.2,12.5C740,284.6,747.5,302.7,754.4,318.9z M735,120.6l0.5,3.8
							c-1.8,0.5-3.8,1.3-5.6,1.8C731.9,124.4,733.7,122.6,735,120.6z M675.1,2c1.3,0.5,2.5,1.8,3.8,2.5c-3.1-0.5-6.2-1.3-9.4-1.8
							L675.1,2z M609,20.9c0,0,1.3,0,1.8-0.5c0,0.5-0.5,0.5,0,0c-1.3,1.3-1.8,1.8-2.5,3.1L609,20.9z M652.7,81.2
							c-10.5-5.1-19.9-11.8-19.4-27.4C636.5,66.4,648.9,69.4,652.7,81.2z M648.9,53.9c-3.8-2.5-3.8-11.8-2.5-17.4c1.3,0,1.8,0,2.5,0
							C647.6,43.9,652.1,49,648.9,53.9z M648.3,60.7c-5.6-3.1-9.4-12.5-6.9-21.2C643.2,47,645.2,53.9,648.3,60.7z M648.3,68.9
							c-2.5,0-10.5-9.4-12.5-14.3c-1.3-3.8-0.5-7.4,0.5-10.5C637.6,55.7,645.2,60,648.3,68.9z M652.7,47c-2.5-3.1-1.3-8.7,0-11.8
							c1.3,0,1.8,0,3.1,0C654.5,38.8,656.5,45.7,652.7,47z M658.8,42.1c-1.8-2.5-0.5-7.4,1.8-7.4c0.5,0,1.3,0,1.8,0.5
							C662.6,38.8,660.8,40.8,658.8,42.1z M648.9,27.8c-4.4,0.5-10,4.4-13.8,6.9c-4.4,1.3-6.2,5.6-10,5.6c-0.5,5.1-1.8,9.4-2.5,14.3
							c-3.8-5.1-1.8-13.1-0.5-19.4c-10,10.5,1.8,26.8,6.2,35c-8.7-6.2-16.9-20.7-10.5-35c-5.1,1.3-6.2,11.2-5.1,17.4
							c1.8,12.5,15,19.9,21.8,26.8c-18.1-3.1-38.1-35.5-19.9-53.7c9.4-9.4,29.4-15,45-16.1c1.8,0,3.1,0,5.1,0
							c16.1,0,26.8,6.9,36.3,16.1c16.1,15.6,36.8,47.5,25,79.2c-3.8,10-10.5,16.9-14.3,27.4c3.1-16.1,13.8-27.4,14.3-45.5
							c1.3-35.5-19.9-56.2-47.5-64.9H678c25.2,13.8,51.3,33.7,43.1,76.1c3.1-38.6-19.9-72.3-58-72.3
							C658.8,25.8,653.9,26.5,648.9,27.8z M708.1,135.6l6.9-2.5c-2.5,1.3-4.4,3.1-6.9,5.1C708.1,137.4,708.1,136.9,708.1,135.6z
							 M707.6,105.7c-4.4-10,0.5-31.2,0.5-45.5C712.5,72.5,708.9,94.5,707.6,105.7z M715.7,111.3c0.5-5.1,2.5-8.2,3.8-12.5
							C720.6,99.4,715.7,111.3,715.7,111.3z M705.6,54.6c-2.5,14.3-1.8,31.2-3.8,45.5c-1.3-1.3-2.5-3.1-3.8-4.4
							c3.1-13.1,1.8-29.9,5.1-42.4C704.5,53.3,704.5,54.6,705.6,54.6z M688.9,80.7c0.5-11.8,1.3-25.6,3.1-36.3
							c3.8,2.5,1.3,6.2,0.5,10.5c-1.3,11.8,0,27.4-2.5,37.3C685.7,90.7,688.2,84.5,688.9,80.7z M685.1,90.7
							c-3.8-13.8-0.5-33.7,2.5-46.2c0,0,0,0,0.5,0c0.5,0,1.3,0,1.3,0.5C686.4,58.9,685.7,75.1,685.1,90.7z M665.2,38.3
							c-2.5-0.5,0.5-1.8,0-3.1h0.5c1.3,0,1.3,0.5,2.5,0.5C668.8,38.3,665.7,36.5,665.2,38.3z M673.3,37.7c0-1.3,0.5-1.8,0-3.1
							l0.5-2.5c4.4,1.3,8.7,2.5,12.5,5.1v1.3c0,0,0,0-0.5,0h-1.3v-1.3l-9.4,0.5C674.4,37.7,673.9,37.7,673.3,37.7z M428.8,191.8
							c8.7-6.2,19.9-10.5,25-21.2c-19.4-3.8-41.9-23.7-28.6-43.7c5.1,6.9,12.5,9.4,20.7,9.4c15.6,0,33.7-8.2,41.9-12.5
							C478.1,155.5,465.6,190.5,428.8,191.8z M532.3,279c-21.2,0-41.1-10.5-51.1-24.3c1.8,0,3.8,0.5,5.6,0.5
							c22.5,0,34.3-14.3,52.9-14.3c0.5,0,0.5,0,1.3,0c11.8,0.5,20.7,6.9,35.5,6.9c1.3,0,2.5,0,3.8,0c-16.9-10-33.7-30.6-25.6-56.2
							c23,0,29.9,16.1,50.6,18.7c1.8-4.4-1.8-7.4-3.8-11.8c-5.1-12.5-7.4-26.3-15.6-36.3c-8.2-9.4-22.5-16.9-36.3-16.9
							c-3.8,0-7.4,0.5-10.5,1.8c-13.1,4.4-19.9,15-21.2,33c-27.4-23,7.4-61.1,34.3-64.9c1.8,0,3.8-0.5,5.1-0.5
							c12.5,0,23,6.2,29.4,12.5c17.4,16.1,18.1,38.6,32.4,56.7c-4.4-41.1-25.6-74.9-62.4-74.9c-3.1,0-6.2,0-9.4,0.5
							c-13.8,1.8-25.6,10.5-33.7,18.7c-8.2,8.2-9.4,19.4-14.3,31.2c-2.5,6.2-12.5,23-18.1,27.4c-3.8,3.1-6.9,3.8-12.5,6.2
							c31.7-16.9,28.6-69.2,64.2-83c-28.6,1.8-33.7,46.2-48.6,65.4c-3.8,5.1-9.4,8.2-13.8,11.8c-3.8,3.1-7.4,8.7-13.1,8.7
							c-0.5,0-1.8,0-2.5-0.5c35.5-10.5,33-58.5,57.5-79.8c6.9-6.2,15.6-7.4,25-12.5c-46.2,4.4-42.4,61.1-72.3,84.3
							c-5.6,6.2-13.1,6.2-19.9,11.2c1.3-5.6,8.2-4.4,11.2-6.2c29.4-13.1,29.9-51.8,48-76.7c11.8-8.7,34.3-17.4,54.9-17.4
							c11.2,0,22.5,2.5,31.7,8.7c4.4,3.1,8.2,7.4,12.5,11.2c18.1,14.3,25.6,35,29.4,63.1c2.5,18.7,5.6,38.1,19.4,48.6
							c2.5-1.8-0.5-6.9-0.5-10c-5.1-49.8,16.9-79.8,30.6-112.2c0-4.4,0.5-7.4,3.1-8.7c5.6,1.3,10.5,4.4,13.8,8.2
							c8.2,11.8,1.3,31.7,5.1,45c5.6-0.5,5.1-6.2,8.2-8.7c18.1-18.1,55.5-15.6,74.9-32.4c11.2,36.8-5.6,66.7-33,76.7
							c2.5,8.7,13.1,12.5,24.3,12.5c5.1,0,10-0.5,14.3-1.8c-5.6,16.1-23.7,19.4-42.4,22.5c-1.8,5.6,9.4,5.6,5.1,8.2
							c-2.5-1.8-5.6-2.5-10-2.5c-0.5,0-1.8,0-3.1,0c10.5,3.8,22.5,6.2,29.4,14.3c-7.4-2.5-16.9-9.4-29.9-9.4c-1.3,0-2.5,0-3.8,0
							c1.8,2.5,5.1,2.5,7.4,2.5c0.5,0,1.3,0,2.5,0s2.5,0,3.8,0c11.2,2.5,23,9.4,26.8,19.9h-0.5c-3.1,0-4.4-5.1-7.4-7.4
							c-6.2-5.1-15.6-10-26.3-10c-3.1,0-5.6,0.5-8.7,1.3c18.7,1.3,36.3,8.2,42.4,23.7c-8.2-6.9-21.2-19.4-37.3-19.4
							c-2.5,0-5.6,0.5-8.2,1.3c-10,2.5-15.6,13.1-19.4,23c-3.8-10,6.2-18.1,10.5-25c-13.8,4.4-15.6,23-12.5,38.1
							c-7.4-11.8-1.3-29.4,6.2-37.3c-6.2,2.5-10.5,10-11.8,18.1c-1.8,11.8,4.4,22.5,8.7,29.4c0,0,0,0-0.5,0
							c-4.4,0-10.5-13.1-10.5-21.8c-0.5-23,18.7-38.1,31.2-48.6c-1.3-0.5-2.5-0.5-3.1-0.5c-6.2,0-12.5,4.4-16.1,8.2
							c-16.1,14.3-25,42.4-10.5,63.1c6.2,9.4,17.4,13.8,21.2,26.8c-17.4-18.7-45.5-36.3-40.6-75.4c3.8-27.4,18.1-46.8,36.8-61.1
							c20.7-16.9,49.8-28.1,61.8-55.5c-21.8,20.7-55.5,37.3-80.5,61.1c-19.9,18.7-33.7,54.2-19.9,87.4
							c-10.5-18.1-11.8-54.9-1.3-74.1c-11.2,7.4-11.8,41.1-6.9,59.3c-6.2-9.4-6.2-30.6-3.8-45.5c3.8-19.9,18.1-31.7,23.7-47.5
							c-4.4,0-6.9,5.1-10,8.2c-10,11.2-20.7,25-21.2,46.2c0,11.8,2.5,25,6.2,36.3c0,0,0,0.5-0.5,0.5c-1.3,0-4.4-4.4-6.9-5.6
							c-10.5-6.9-25-10-38.6-12.5c-18.7-3.8-34.3-13.1-45-23c10.5,38.1,77.4,23.7,93,54.9c-22.5-13.8-53.7-17.4-86.6-17.4
							c-23.7,0-48.6,1.8-72.3,3.8c6.2,0.5,13.1,1.3,19.4,1.3c19.4,0,40.6-2.5,60.5-2.5c10.5,0,20.7,0.5,29.9,3.1
							c-5.6,1.3-12.5,1.8-19.9,1.8c-3.1,0-6.2,0-9.4,0c-2.5,0-5.6,0-8.2,0c-19.4,0-39.3,2.5-58.5,2.5c-10.5,0-21.2-0.5-31.2-3.1
							c5.1,4.4,15,5.1,23.7,5.1c1.3,0,3.1,0,4.4,0c3.8,0,7.4,0,10.5,0c1.3,0,2.5,0,3.8,0c1.8,0,3.8,0,6.2,0
							c16.1,0,29.9-2.5,46.2-2.5c2.5,0,5.6,0,8.7,0c-13.8,3.8-34.3,6.2-54.9,6.2c-15,0-29.4-1.3-41.1-3.8c5.1,5.1,14.3,5.6,23,6.2
							c3.8,0,8.2,0,11.8,0c12.5,0,25.6-1.3,36.8-2.5c0.5,0,1.3,0,1.3,0c-9.4,3.8-23,5.6-36.8,5.6c-9.4,0-18.1-0.5-26.3-1.8
							c5.1,3.1,13.1,3.8,21.2,3.8c5.1,0,10,0,15,0c1.8,0,3.8,0,5.6,0C547.2,277.7,539.7,279,532.3,279z M610.2,365.1
							c-2.5,9.4-2.5,19.4-3.8,30.6c-1.8,17.4-10,31.7-21.8,38.6c-4.4,3.1-16.1,5.1-26.8,5.1c-7.4,0-15-1.3-19.4-3.1
							c-10.5-5.6-18.7-25-15-38.6c3.8,2.5,1.3,7.4,1.3,11.2c2.5,16.9,21.8,28.1,39.9,28.1c8.2,0,16.1-2.5,23-7.4
							c8.7-6.9,11.2-18.7,13.8-33c-7.4,9.4-5.1,24.3-15.6,31.2c-5.6,3.8-15,5.6-23,5.6c-1.3,0-2.5,0-3.1,0
							c-17.4-1.3-33-13.8-31.2-33.7c5.1,3.1,2.5,8.2,3.8,11.8c1.8,6.2,8.2,13.1,13.8,15.6s10.5,3.1,15,3.1
							c16.1,0,28.6-11.8,33.7-24.3c3.8-10,3.1-21.8,4.4-33c2.5-15,9.4-29.9,19.4-38.1c-6.2,11.8-18.1,29.4-15,50.6
							c4.4-22.5,10-45,26.3-56.2C622,337.7,614.6,349.5,610.2,365.1z M623.3,352.6c-1.8-5.1,3.1-10,5.1-13.8
							C628.9,343.3,624,347.7,623.3,352.6z M621.5,355.1l0.5-0.5c0.5,0-1.8,6.9-1.8,9.4c-1.3,16.1,3.8,35,15,39.9
							C614.6,403.2,612.8,373.2,621.5,355.1z M645.2,404.4c-14.3,0-23-17.4-22.5-36.8c1.3-19.9,15-38.6,25.6-45.5
							c-9.4,10.5-28.1,39.9-18.7,63.1c3.8,8.7,11.8,14.3,21.2,18.7C648.9,404.4,647,404.4,645.2,404.4z M660.1,319.6
							c-3.1,3.8-8.2,5.1-11.8,7.4C651.4,323.9,655.2,320.9,660.1,319.6z M653.2,401.9c-4.4,0-9.4-3.8-11.8-5.6
							c-2.5-2.5-7.4-8.2-8.7-11.2c-7.4-15.6,1.3-36.8,7.4-47.5c-8.7,17.4-11.2,59.8,18.1,60.5C657,400.6,655.2,401.9,653.2,401.9z
							 M646.5,337c-10.5,14.3-11.2,47.5,3.8,53.7c1.3,0.5,2.5,0.5,3.8,0.5c0.5,0,0.5,0,1.3,0c3.1-0.5,6.2,0,5.6,4.4
							c-4.4-0.5-10.5-1.8-14.3-4.4c-15.6-10-13.1-45.5,1.3-60.5c4.4-4.4,11.2-9.4,18.1-9.4c1.8,0,4.4,0.5,6.2,1.8
							C663.9,325.8,652.7,329,646.5,337z M655.2,312.7c-5.6,0-11.8,0.5-18.1,3.1c-18.7,5.6-38.6,21.8-44.2,41.9
							c-6.2,21.8-2.5,44.2-17.4,56.7c-4.4,3.8-12.5,6.2-19.9,6.2c-9.4,0-18.7-4.4-18.1-15.6c8.7-3.1,19.4-3.1,23.7-12.5
							c4.4-9.4,1.8-23,4.4-35c-0.5,0-0.5,0-1.3,0c-5.1,0-7.4,5.1-11.2,7.4c-5.6,4.4-15,6.9-23.7,6.9c-13.1,0-26.3-5.1-31.2-16.9
							c29.9-13.8,36.3-51.8,64.9-72.3c9.4-6.9,31.2-15,45.5-16.1c3.8-0.5,7.4-0.5,11.2-0.5c35,0,54.2,16.9,74.1,35
							c-15.6-7.4-36.8-8.7-58.5-10.5c-8.2-0.5-15.6-1.3-21.8-1.3c-15.6,0-27.4,3.1-38.1,13.1c-9.4,10-12.5,18.1-23.7,27.4
							c8.2,0,14.3-8.7,21.2-13.8c0-0.5,0.5-0.5,0.5-0.5s0,0.5-0.5,1.3c-13.8,19.9-34.3,32.4-59.8,40.6c0.5,0,1.3,0,2.5,0
							c8.7,0,16.9-3.8,23-6.9c7.4-3.8,13.8-8.7,19.9-15c16.9-15.6,24.3-38.1,52.9-40.6c-15,5.6-26.3,10.5-35,21.8
							c-6.9,8.7-11.8,19.9-21.2,26.8c-10,7.4-21.8,9.4-33,17.4h0.5c5.1,0,11.2-3.1,18.1-6.2c8.2-3.8,16.9-9.4,22.5-15.6
							c11.2-13.1,19.9-33.7,40.6-38.1c-3.8,4.4-8.7,5.6-12.5,8.7c-11.2,8.7-16.9,23.7-26.8,33.7c-8.7,8.2-19.4,11.8-29.9,18.7
							c0.5,0,1.3,0,1.8,0c4.4,0,8.7-3.8,12.5-5.6c13.1-6.9,24.3-18.1,31.2-30.6c-0.5,3.8-5.1,10.5-5.1,17.4
							c5.6-3.1,6.9-10.5,11.2-15.6c8.7-10.5,22.5-22.5,38.6-26.3c8.2-1.8,16.9-3.1,25.6-3.1c21.8,0,43,6.2,56.7,18.1
							c-12.5-4.4-28.6-13.1-48-14.3c-2.5,0-4.4,0-6.9,0c-21.8,0-42.4,6.2-52.4,18.7c7.4-3.1,15-10,23.7-12.5
							c7.4-1.8,16.1-3.1,24.3-3.1c29.9,0,61.1,12.5,75.4,29.4c-14.3-6.9-34.3-23-56.7-25.6c-3.8-0.5-6.9-0.5-10.5-0.5
							c-17.4,0-32.4,5.1-45,13.1c8.2-0.5,14.3-7.4,22.5-8.7c5.6-1.3,11.2-1.3,16.1-1.3c31.7,0,60.5,15.6,77.9,31.7
							C706.3,333.9,683.8,312.7,655.2,312.7z M733.1,330.8c-3.1-19.9-14.3-31.2-16.1-51.8c5.6,13.1,8.2,28.1,15.6,38.1
							c-3.1-16.1-12.5-29.9-14.3-45.5c0,0,0,0,0.5,0s1.3,0.5,1.8,0.5c13.1,41.9,29.9,79.2,49.8,113.5c-0.5,4.4,1.3,6.2,0.5,10.5
							c-5.1-10-10-19.4-15-29.4c1.8,16.9,15,28.6,18.7,45.5C757.4,388.8,747.5,357.7,733.1,330.8z M784.8,383.2
							c-0.5,1.3-0.5,3.8-0.5,3.8s0-1.3,0-3.8c-0.5-8.7,2.5-21.2,0-29.4c-3.8,16.9-3.1,36.8-2.5,54.9c-8.2-13.8-1.3-41.1-4.4-58.5
							c-1.8-11.8-8.2-18.7-11.8-28.6C782.4,329.6,791.7,360.2,784.8,383.2z"/>
					</g>
				</g>
			</g>
		</g>
	</g>
</g>
</svg>
